<svg xmlns="http://www.w3.org/2000/svg" viewBox="0 0 30.52 41.05"><defs><style>.cls-1{fill:#f47b29;}</style></defs><g id="Layer_2" data-name="Layer 2"><g id="Layer_1-2" data-name="Layer 1"><path d="M.56,30.52v1.17H.35V29.17h.91c.5,0,.76.27.76.66a.57.57,0,0,1-.47.59c.26.06.43.23.43.66v.1a1.93,1.93,0,0,0,0,.51h-.2a1.59,1.59,0,0,1,0-.53V31.1c0-.41-.12-.58-.6-.58Zm0-.19h.6c.44,0,.64-.16.64-.49s-.2-.48-.59-.48H.56Z" transform="translate(0)"/><path d="M3.8,31.34a1.39,1.39,0,0,0,0,.35H3.65a.9.9,0,0,1,0-.28.58.58,0,0,1-.59.32.53.53,0,0,1-.59-.54c0-.39.3-.58.84-.58h.34v-.18c0-.18,0-.42-.46-.42s-.41.19-.45.34H2.51a.57.57,0,0,1,.65-.51c.41,0,.64.18.64.58Zm-.18-.57H3.27c-.4,0-.65.11-.65.41a.37.37,0,0,0,.41.38c.51,0,.59-.34.59-.72Z" transform="translate(0)"/><path d="M4.39,30.34v-.45h.18c0,.05,0,.29,0,.34a.59.59,0,0,1,.59-.39c.33,0,.61.19.61.68v1.17H5.59V30.55c0-.32-.13-.52-.44-.52s-.57.35-.57.74v.92H4.39Z" transform="translate(0)"/><path d="M6.55,30.81l.91-.92H7.7L7,30.6l.8,1.09H7.56l-.71-1-.3.29v.68H6.37V29h.18Z" transform="translate(0)"/><path d="M9,31.19a.47.47,0,0,0,.5.37c.32,0,.45-.14.45-.34s-.09-.31-.49-.4-.58-.26-.58-.49.19-.49.6-.49a.57.57,0,0,1,.63.51H9.94A.43.43,0,0,0,9.48,30c-.31,0-.4.16-.4.3s.09.25.44.33c.51.13.64.29.64.56s-.27.53-.65.53a.62.62,0,0,1-.69-.54Z" transform="translate(0)"/><path d="M10.65,30.81c0,.46.24.75.58.75a.49.49,0,0,0,.51-.34h.2a.7.7,0,0,1-.72.51c-.55,0-.76-.47-.76-.93s.26-1,.78-1a.75.75,0,0,1,.74.82.71.71,0,0,1,0,.15Zm1.13-.16a.56.56,0,0,0-.54-.63c-.37,0-.54.26-.58.63Z" transform="translate(0)"/><path d="M13.76,31.16a.68.68,0,0,1-.7.57c-.45,0-.77-.33-.77-.93s.26-1,.79-1a.64.64,0,0,1,.68.58h-.19a.47.47,0,0,0-.49-.4c-.38,0-.59.32-.59.77s.2.77.57.77a.5.5,0,0,0,.51-.4Z" transform="translate(0)"/><path d="M15.51,31.16c0,.18,0,.46,0,.53h-.18a2.37,2.37,0,0,1,0-.31.56.56,0,0,1-.58.35c-.26,0-.59-.1-.59-.65V29.89h.18V31c0,.26.08.51.44.51s.55-.22.55-.74v-.92h.18Z" transform="translate(0)"/><path d="M16.1,30.38v-.49h.18c0,.05,0,.17,0,.4a.68.68,0,0,1,.62-.45v.21a.64.64,0,0,0-.62.71v.93H16.1Z" transform="translate(0)"/><path d="M17.25,29h.18v.35h-.18Zm0,.85h.18v1.8h-.18Z" transform="translate(0)"/><path d="M17.78,29.89h.33v-.56h.19v.56h.43v.17H18.3v1.17c0,.2,0,.31.21.31a.62.62,0,0,0,.19,0v.16a.56.56,0,0,1-.23,0c-.23,0-.36-.11-.36-.4V30.06h-.33Z" transform="translate(0)"/><path d="M19.16,29.89c.36,1,.52,1.45.58,1.64h0c.07-.22.21-.64.56-1.64h.19l-.68,1.9c-.19.54-.32.66-.64.66l-.17,0v-.18h.16c.26,0,.34-.12.47-.49L19,29.89Z" transform="translate(0)"/><path d="M23,31.34a1.39,1.39,0,0,0,0,.35h-.18a.9.9,0,0,1,0-.28.58.58,0,0,1-.59.32.53.53,0,0,1-.59-.54c0-.39.3-.58.84-.58h.34v-.18c0-.18,0-.42-.46-.42s-.41.19-.45.34h-.19a.57.57,0,0,1,.65-.51c.41,0,.64.18.64.58Zm-.18-.57h-.35c-.4,0-.65.11-.65.41a.37.37,0,0,0,.41.38c.52,0,.59-.34.59-.72Z" transform="translate(0)"/><path d="M23.6,31.19a.48.48,0,0,0,.51.37c.32,0,.44-.14.44-.34s-.08-.31-.48-.4-.58-.26-.58-.49.18-.49.59-.49a.58.58,0,0,1,.64.51h-.19a.42.42,0,0,0-.45-.34c-.31,0-.4.16-.4.3s.08.25.44.33.63.29.63.56-.26.53-.65.53a.62.62,0,0,1-.69-.54Z" transform="translate(0)"/><path d="M25.87,29.89h.33v-.56h.19v.56h.42v.17h-.42v1.17c0,.2,0,.31.21.31a.62.62,0,0,0,.19,0v.16a.56.56,0,0,1-.23,0c-.23,0-.36-.11-.36-.4V30.06h-.33Z" transform="translate(0)"/><path d="M27.36,29v1.15a.62.62,0,0,1,.59-.35c.26,0,.61.14.61.7v1.15h-.19V30.58c0-.35-.16-.55-.45-.55s-.56.22-.56.66v1h-.19V29Z" transform="translate(0)"/><path d="M29.2,30.81c0,.46.23.75.57.75a.51.51,0,0,0,.52-.34h.19a.7.7,0,0,1-.71.51c-.55,0-.77-.47-.77-.93s.26-1,.79-1a.75.75,0,0,1,.73.82v.15Zm1.13-.16c0-.35-.2-.63-.55-.63s-.53.26-.57.63Z" transform="translate(0)"/><path d="M0,34.21H.36v-.56H.55v.56H1v.17H.55v1.17c0,.2,0,.31.21.31a.62.62,0,0,0,.19,0V36a.56.56,0,0,1-.23,0c-.23,0-.36-.11-.36-.4V34.38H0Z" transform="translate(0)"/><path d="M1.52,33.36v1.15a.62.62,0,0,1,.59-.35c.26,0,.61.14.61.7V36H2.53V34.9c0-.35-.16-.55-.46-.55s-.55.22-.55.66v1H1.33V33.36Z" transform="translate(0)"/><path d="M3.35,35.13c0,.46.24.75.58.75a.51.51,0,0,0,.52-.34h.19a.7.7,0,0,1-.71.51c-.55,0-.77-.47-.77-.93s.26-1,.79-1a.75.75,0,0,1,.73.82v.15ZM4.49,35c0-.35-.2-.63-.55-.63s-.54.26-.57.63Z" transform="translate(0)"/><path d="M5.88,35.06H7.49v.18H5.88Zm.74-1.49h.17L6.21,36H6Zm-.57.67H7.66v.18H6.05Zm1.28-.67h.16L6.92,36H6.75Z" transform="translate(0)"/><path d="M8.56,36V33.87a1.55,1.55,0,0,1-.54.28V34a1.79,1.79,0,0,0,.57-.35h.16V36Z" transform="translate(0)"/><path d="M11.59,35.66a1.39,1.39,0,0,0,0,.35h-.18a.9.9,0,0,1,0-.28.58.58,0,0,1-.59.32.53.53,0,0,1-.59-.54c0-.4.3-.58.84-.58h.34v-.18c0-.18-.05-.42-.46-.42s-.41.19-.45.34H10.3a.57.57,0,0,1,.65-.51c.41,0,.64.18.64.57Zm-.18-.57h-.35c-.4,0-.65.11-.65.41a.37.37,0,0,0,.41.38c.52,0,.59-.34.59-.72Z" transform="translate(0)"/><path d="M11.9,34.21h.33v-.56h.19v.56h.42v.17h-.42v1.17c0,.2,0,.31.21.31a.62.62,0,0,0,.19,0V36a.56.56,0,0,1-.23,0c-.23,0-.36-.11-.36-.4V34.38H11.9Z" transform="translate(0)"/><path d="M13,34.21h.34v-.56h.18v.56h.43v.17h-.43v1.17c0,.2,0,.31.22.31a.65.65,0,0,0,.19,0V36a.58.58,0,0,1-.23,0c-.23,0-.36-.11-.36-.4V34.38H13Z" transform="translate(0)"/><path d="M14.24,34.7c0-.3,0-.43,0-.49h.19v.4a.71.71,0,0,1,.63-.45v.21a.65.65,0,0,0-.63.71V36h-.18Z" transform="translate(0)"/><path d="M16.59,35.66a1.39,1.39,0,0,0,0,.35h-.18a.9.9,0,0,1,0-.28.58.58,0,0,1-.59.32.53.53,0,0,1-.59-.54c0-.4.3-.58.84-.58h.34v-.18c0-.18,0-.42-.46-.42s-.41.19-.45.34H15.3a.57.57,0,0,1,.65-.51c.41,0,.64.18.64.57Zm-.18-.57h-.35c-.4,0-.65.11-.65.41a.37.37,0,0,0,.41.38c.52,0,.59-.34.59-.72Z" transform="translate(0)"/><path d="M18.51,35.48a.68.68,0,0,1-.7.57c-.45,0-.77-.33-.77-.93s.26-1,.79-1a.65.65,0,0,1,.68.58h-.19a.47.47,0,0,0-.49-.4c-.38,0-.59.32-.59.77s.2.77.57.77a.5.5,0,0,0,.51-.4Z" transform="translate(0)"/><path d="M18.7,34.21H19v-.56h.18v.56h.43v.17h-.43v1.17c0,.2.05.31.22.31a.55.55,0,0,0,.18,0V36a.51.51,0,0,1-.22,0c-.23,0-.36-.11-.36-.4V34.38H18.7Z" transform="translate(0)"/><path d="M20,33.36h.19v.35H20Zm0,.85h.19V36H20Z" transform="translate(0)"/><path d="M22.26,35.1a.85.85,0,0,1-.82.95c-.49,0-.79-.4-.79-.94a.84.84,0,0,1,.81-1A.83.83,0,0,1,22.26,35.1Zm-1.41,0c0,.43.23.77.6.77s.61-.32.61-.77-.22-.77-.61-.77S20.85,34.68,20.85,35.11Z" transform="translate(0)"/><path d="M22.7,34.66v-.45h.18s0,.29,0,.34a.59.59,0,0,1,.59-.39c.33,0,.61.19.61.68V36H23.9V34.87c0-.32-.13-.52-.44-.52s-.57.35-.57.74V36H22.7Z" transform="translate(0)"/><path d="M25.66,36V34.38h-.31v-.17h.31V34c0-.3.09-.63.49-.63l.18,0v.18l-.19,0c-.21,0-.29.15-.29.46v.25h.39v.17h-.39V36Z" transform="translate(0)"/><path d="M28,35.1a.85.85,0,0,1-.82.95c-.49,0-.79-.4-.79-.94a.85.85,0,0,1,.81-1A.83.83,0,0,1,28,35.1Zm-1.41,0c0,.43.23.77.61.77s.6-.32.6-.77-.22-.77-.61-.77S26.58,34.68,26.58,35.11Z" transform="translate(0)"/><path d="M28.43,34.7v-.49h.18s0,.17,0,.4a.68.68,0,0,1,.62-.45v.21a.64.64,0,0,0-.62.71V36h-.19Z" transform="translate(0)"/><path d="M1.54,40a2.5,2.5,0,0,0,0,.35H1.38a1.86,1.86,0,0,1,0-.28.58.58,0,0,1-.59.32.54.54,0,0,1-.6-.54c0-.39.31-.58.85-.58h.34v-.18c0-.18-.06-.42-.46-.42s-.42.19-.46.34H.25a.56.56,0,0,1,.64-.51c.41,0,.65.18.65.58Zm-.19-.57H1c-.4,0-.64.11-.64.41a.37.37,0,0,0,.41.38c.51,0,.58-.34.58-.72Z" transform="translate(0)"/><path d="M2.13,39c0-.16,0-.31,0-.45h.19c0,.06,0,.29,0,.34a.6.6,0,0,1,.6-.39.59.59,0,0,1,.61.68v1.17H3.33V39.19c0-.32-.13-.52-.45-.52s-.57.35-.57.74v.92H2.13Z" transform="translate(0)"/><path d="M5.09,39.45c0,.46.23.75.58.75a.51.51,0,0,0,.51-.34h.19a.7.7,0,0,1-.71.51c-.55,0-.76-.47-.76-.93s.25-1,.78-1a.74.74,0,0,1,.73.82v.15Zm1.13-.16c0-.35-.2-.63-.55-.63s-.53.26-.57.63Z" transform="translate(0)"/><path d="M7.75,39.32v.18H6.84v-.18Z" transform="translate(0)"/><path d="M8.27,38.53c.26.92.41,1.45.44,1.61h0c0-.14.2-.7.48-1.61h.2l.47,1.57h0c.05-.2.13-.47.46-1.57h.2L10,40.33H9.75c-.19-.64-.42-1.41-.46-1.58h0c0,.18-.24.82-.47,1.58H8.6l-.53-1.8Z" transform="translate(0)"/><path d="M12.11,40a2.13,2.13,0,0,0,0,.35H12a.74.74,0,0,1,0-.28.59.59,0,0,1-.59.32.54.54,0,0,1-.6-.54c0-.39.3-.58.84-.58h.35v-.18c0-.18-.06-.42-.47-.42s-.41.19-.45.34h-.19a.57.57,0,0,1,.65-.51c.41,0,.64.18.64.58Zm-.18-.57h-.35c-.4,0-.64.11-.64.41a.37.37,0,0,0,.41.38c.51,0,.58-.34.58-.72Z" transform="translate(0)"/><path d="M12.7,40.33V37.68h.19v2.65Z" transform="translate(0)"/><path d="M13.48,40.33V37.68h.18v2.65Z" transform="translate(0)"/><path d="M14.3,39.45c0,.46.23.75.58.75a.5.5,0,0,0,.51-.34h.19a.68.68,0,0,1-.71.51c-.55,0-.76-.47-.76-.93s.25-1,.78-1a.75.75,0,0,1,.74.82.66.66,0,0,1,0,.15Zm1.13-.16a.56.56,0,0,0-.55-.63c-.36,0-.53.26-.57.63Z" transform="translate(0)"/><path d="M15.82,38.53h.34V38h.18v.56h.43v.17h-.43v1.17c0,.2.05.31.22.31a.55.55,0,0,0,.18,0v.16a.51.51,0,0,1-.22,0c-.23,0-.36-.12-.36-.41V38.7h-.34Z" transform="translate(0)"/><path d="M19.32,40a2.5,2.5,0,0,0,0,.35h-.18a1.86,1.86,0,0,1,0-.28.58.58,0,0,1-.59.32.54.54,0,0,1-.6-.54c0-.39.31-.58.85-.58h.34v-.18c0-.18-.06-.42-.46-.42s-.42.19-.46.34H18a.56.56,0,0,1,.64-.51c.41,0,.65.18.65.58Zm-.19-.57h-.35c-.4,0-.64.11-.64.41a.37.37,0,0,0,.41.38c.51,0,.58-.34.58-.72Z" transform="translate(0)"/><path d="M20.09,40.07v1h-.18V39c0-.15,0-.3,0-.44h.19v.32a.67.67,0,0,1,.64-.37c.42,0,.72.36.72.9s-.35,1-.79,1A.6.6,0,0,1,20.09,40.07Zm1.16-.68c0-.42-.2-.73-.56-.73s-.61.27-.61.76.14.78.59.78S21.25,39.88,21.25,39.39Z" transform="translate(0)"/><path d="M22.08,40.07v1h-.19V38.53h.18a2.64,2.64,0,0,1,0,.32.67.67,0,0,1,.63-.37c.43,0,.72.36.72.9s-.34,1-.78,1A.6.6,0,0,1,22.08,40.07Zm1.16-.68c0-.42-.2-.73-.56-.73s-.61.27-.61.76.14.78.59.78S23.24,39.88,23.24,39.39Z" transform="translate(0)"/><path d="M23.77,40.33v-.47H24v.47Z" transform="translate(0)"/><path d="M5.62,14.07a1.33,1.33,0,0,1,.83-1.21,1.09,1.09,0,0,1-.63-1c0-.81.58-1.37,1.66-1.37S9.1,11,9.1,11.82a1,1,0,0,1-.65,1A1.29,1.29,0,0,1,9.28,14c0,1-.78,1.53-1.87,1.53S5.62,15,5.62,14.07Zm2.73,0c0-.53-.36-.8-.9-.8a.78.78,0,0,0-.89.8.81.81,0,0,0,.9.81A.78.78,0,0,0,8.35,14ZM6.71,11.85c0,.36.25.63.76.63s.74-.21.74-.62a.66.66,0,0,0-.75-.67C7,11.19,6.71,11.44,6.71,11.85Z" transform="translate(0)"/><path d="M10,11.79a1.52,1.52,0,0,1,1.68-1.33c1.1,0,1.59.64,1.59,1.32a1,1,0,0,1-.62,1v0A1.19,1.19,0,0,1,13.5,14c0,.74-.45,1.55-1.8,1.55a1.58,1.58,0,0,1-1.78-1.42h.91a.85.85,0,0,0,.9.7.77.77,0,0,0,.83-.84c0-.53-.29-.81-.9-.81h-.41v-.73h.35c.55,0,.78-.19.78-.64s-.24-.63-.7-.63a.68.68,0,0,0-.76.59Z" transform="translate(0)"/><path d="M16.72,11.87a1.28,1.28,0,0,1-1.31,1.43,1.25,1.25,0,0,1-1.3-1.42,1.28,1.28,0,0,1,1.31-1.42A1.26,1.26,0,0,1,16.72,11.87Zm-1.87,0c0,.51.2.82.57.82s.58-.28.58-.82-.23-.8-.59-.8S14.85,11.34,14.85,11.87Zm.52,3.61,3.09-4.93h.71l-3.09,4.93Zm5.06-1.32a1.28,1.28,0,0,1-1.31,1.42,1.25,1.25,0,0,1-1.3-1.42,1.28,1.28,0,0,1,1.31-1.41A1.25,1.25,0,0,1,20.43,14.16Zm-1.87,0c0,.51.2.81.57.81s.58-.27.58-.81-.23-.8-.59-.8S18.56,13.63,18.56,14.16Z" transform="translate(0)"/><path class="cls-1" d="M13,24A10.94,10.94,0,1,1,18.31,3.45l1-1.83A13,13,0,1,0,26,13H24A10.94,10.94,0,0,1,13,24Z" transform="translate(0)"/></g></g></svg>