<svg xmlns="http://www.w3.org/2000/svg" viewBox="0 0 27.25 41.09"><defs><style>.cls-1{fill:#f47b29;}</style></defs><g id="Layer_2" data-name="Layer 2"><g id="Layer_1-2" data-name="Layer 1"><path d="M.38,31a.64.64,0,0,0,.71.53c.45,0,.63-.23.63-.5s-.13-.46-.68-.59-.76-.31-.76-.67.24-.65.78-.65a.73.73,0,0,1,.82.65H1.67a.55.55,0,0,0-.62-.46c-.36,0-.56.17-.56.44s.17.39.63.5c.71.18.81.46.81.77s-.27.69-.85.69A.81.81,0,0,1,.17,31Z"/><path d="M3.66,31.34a2.13,2.13,0,0,0,0,.35H3.51a.74.74,0,0,1,0-.28.58.58,0,0,1-.59.32.54.54,0,0,1-.6-.54c0-.39.31-.58.85-.58h.34v-.18c0-.18-.06-.42-.46-.42s-.42.19-.46.34H2.38A.56.56,0,0,1,3,29.84c.41,0,.64.18.64.58Zm-.18-.57H3.13c-.4,0-.64.11-.64.41a.37.37,0,0,0,.41.38c.51,0,.58-.34.58-.72Z"/><path d="M4.25,29h.19v.35H4.25Zm0,.85h.19v1.8H4.25Z"/><path d="M6.42,29v2.13c0,.17,0,.34,0,.52H6.25a2.54,2.54,0,0,1,0-.3.59.59,0,0,1-.61.34c-.46,0-.75-.38-.75-.92s.31-1,.8-1a.57.57,0,0,1,.56.27V29ZM5.08,30.8c0,.49.26.76.56.76.48,0,.61-.33.61-.81S6.13,30,5.68,30,5.08,30.3,5.08,30.8Z"/><path d="M7.68,29.89H8v-.56H8.2v.56h.43v.17H8.2v1.17c0,.2,0,.31.22.31a.58.58,0,0,0,.18,0v.16a.53.53,0,0,1-.22,0c-.24,0-.37-.11-.37-.4V30.06H7.68Z"/><path d="M9.17,29v1.15a.63.63,0,0,1,.59-.35c.26,0,.61.14.61.7v1.15h-.18V30.58c0-.35-.16-.55-.46-.55s-.56.22-.56.66v1H9V29Z"/><path d="M11,30.81c0,.46.23.75.58.75a.5.5,0,0,0,.51-.34h.19a.68.68,0,0,1-.71.51c-.55,0-.76-.47-.76-.93s.25-1,.78-1a.74.74,0,0,1,.73.82v.15Zm1.13-.16a.56.56,0,0,0-.55-.63c-.36,0-.53.26-.57.63Z"/><path d="M12.79,29.89c.36,1,.52,1.45.58,1.64h0c.07-.22.21-.64.56-1.64h.19l-.67,1.9c-.19.54-.32.66-.65.66l-.17,0v-.18h.16c.26,0,.34-.12.48-.49l-.69-1.88Z"/><path d="M15.42,29.89c.27.92.42,1.45.45,1.61h0c0-.14.21-.7.49-1.61h.2c.33,1.11.43,1.43.46,1.57h0c0-.2.13-.47.46-1.57h.2l-.57,1.8h-.21c-.19-.64-.42-1.41-.46-1.58h0c0,.18-.24.82-.47,1.58h-.23l-.53-1.8Z"/><path d="M19.52,30.78a.85.85,0,0,1-.82.95c-.49,0-.79-.4-.79-.94a.85.85,0,0,1,.81-.95A.83.83,0,0,1,19.52,30.78Zm-1.41,0c0,.43.23.77.61.77s.6-.32.6-.77S19.1,30,18.71,30,18.11,30.36,18.11,30.79Z"/><path d="M21.31,31.16c0,.18,0,.46,0,.53h-.18a2.37,2.37,0,0,1,0-.31.56.56,0,0,1-.58.35c-.26,0-.59-.1-.59-.65V29.89h.18V31c0,.26.08.51.44.51s.55-.22.55-.74v-.92h.18Z"/><path d="M21.9,31.69V29h.19v2.65Z"/><path d="M24.07,29v2.13c0,.17,0,.34,0,.52H23.9a2.23,2.23,0,0,1,0-.3.58.58,0,0,1-.6.34c-.47,0-.75-.38-.75-.92s.31-1,.8-1,.5.16.55.27V29ZM22.73,30.8c0,.49.25.76.56.76.47,0,.6-.33.6-.81s-.11-.73-.57-.73S22.73,30.3,22.73,30.8Z"/><path d="M.29,33.36H.48v1.15a.63.63,0,0,1,.62-.35c.42,0,.73.36.73.91s-.28,1-.78,1a.56.56,0,0,1-.57-.32,2.1,2.1,0,0,1,0,.28H.29V33.36Zm1.35,1.71c0-.44-.22-.73-.57-.73s-.6.3-.6.77.14.77.58.77S1.64,35.58,1.64,35.07Z"/><path d="M2.35,35.13c0,.46.23.75.58.75a.5.5,0,0,0,.51-.34h.19a.69.69,0,0,1-.71.51c-.55,0-.76-.47-.76-.93s.25-1,.78-1a.74.74,0,0,1,.73.82v.15ZM3.48,35a.56.56,0,0,0-.55-.63c-.37,0-.53.26-.57.63Z"/><path d="M4.11,34.66v-.45h.18s0,.29,0,.34a.59.59,0,0,1,.59-.39c.33,0,.61.19.61.68V36H5.31V34.87c0-.32-.13-.52-.44-.52s-.57.35-.57.74V36H4.11Z"/><path d="M6.13,35.13c0,.46.24.75.58.75a.51.51,0,0,0,.52-.34h.19a.7.7,0,0,1-.71.51c-.55,0-.77-.47-.77-.93s.26-1,.79-1a.75.75,0,0,1,.73.82v.15ZM7.27,35c0-.35-.2-.63-.55-.63s-.54.26-.57.63Z"/><path d="M8,36V34.38H7.68v-.17H8V34c0-.3.09-.63.49-.63l.18,0v.18l-.19,0c-.21,0-.29.15-.29.46v.25h.39v.17H8.18V36Z"/><path d="M8.9,33.36h.19v.35H8.9Zm0,.85h.19V36H8.9Z"/><path d="M9.43,34.21h.34v-.56H10v.56h.43v.17H10v1.17c0,.2.05.31.22.31a.55.55,0,0,0,.18,0V36a.51.51,0,0,1-.22,0c-.23,0-.36-.11-.36-.4V34.38H9.43Z"/><path d="M11.73,36V34.38h-.31v-.17h.31V34c0-.3.09-.63.49-.63l.18,0v.18l-.19,0c-.21,0-.29.15-.29.46v.25h.39v.17h-.39V36Z"/><path d="M12.61,34.7v-.49h.18a3.27,3.27,0,0,1,0,.4.68.68,0,0,1,.63-.45v.21a.64.64,0,0,0-.63.71V36h-.19Z"/><path d="M15.22,35.1a.84.84,0,0,1-.81.95.84.84,0,0,1-.8-.94.85.85,0,0,1,.81-1A.83.83,0,0,1,15.22,35.1Zm-1.41,0c0,.43.23.77.61.77s.6-.32.6-.77-.21-.77-.61-.77S13.81,34.68,13.81,35.11Z"/><path d="M15.67,34.67c0-.15,0-.32,0-.46h.19c0,.06,0,.21,0,.32a.57.57,0,0,1,.54-.37.5.5,0,0,1,.52.36.61.61,0,0,1,.59-.36c.28,0,.57.16.57.66V36h-.19V34.85c0-.24-.09-.5-.42-.5s-.5.27-.5.62v1h-.19V34.85c0-.26-.07-.5-.4-.5s-.52.3-.52.67v1h-.18Z"/><path d="M20.94,35.48c0,.18,0,.46,0,.53h-.18a2.37,2.37,0,0,1,0-.31.56.56,0,0,1-.58.35c-.26,0-.59-.1-.59-.65V34.21h.18v1.15c0,.26.08.51.44.51s.55-.22.55-.74v-.92h.18Z"/><path d="M21.52,35.51a.47.47,0,0,0,.5.37c.32,0,.45-.14.45-.34s-.09-.31-.49-.4-.58-.26-.58-.49.19-.49.6-.49a.57.57,0,0,1,.63.51h-.18a.43.43,0,0,0-.46-.34c-.31,0-.4.16-.4.3s.09.25.44.33c.51.13.64.29.64.56s-.27.53-.65.53a.62.62,0,0,1-.69-.54Z"/><path d="M23.11,33.36h.19v.35h-.19Zm0,.85h.19V36h-.19Z"/><path d="M23.89,34.66c0-.16,0-.31,0-.45h.19s0,.29,0,.34a.58.58,0,0,1,.59-.39.59.59,0,0,1,.61.68V36h-.19V34.87c0-.32-.13-.52-.44-.52s-.57.35-.57.74V36h-.19Z"/><path d="M27.25,35.88c0,.58-.26.89-.78.89a.63.63,0,0,1-.71-.54H26a.49.49,0,0,0,.52.36c.47,0,.6-.3.6-.75v-.19a.58.58,0,0,1-.6.36c-.43,0-.75-.34-.75-.9s.35-1,.77-1a.55.55,0,0,1,.58.32,1.94,1.94,0,0,1,0-.27h.17v1.67Zm-1.33-.78c0,.43.22.73.57.73s.58-.29.58-.76-.14-.73-.57-.73S25.92,34.69,25.92,35.1Z"/><path d="M1.54,40a2.5,2.5,0,0,0,0,.35H1.38a1.86,1.86,0,0,1,0-.28.58.58,0,0,1-.59.32.54.54,0,0,1-.6-.54c0-.39.31-.58.85-.58h.34v-.18c0-.18-.06-.42-.46-.42s-.42.19-.46.34H.25a.56.56,0,0,1,.64-.51c.41,0,.65.18.65.58Zm-.19-.57H1c-.4,0-.64.11-.64.41a.37.37,0,0,0,.41.38c.51,0,.58-.34.58-.72Z"/><path d="M3.06,37.68h.19v1.15a.62.62,0,0,1,.61-.35c.43,0,.74.36.74.91s-.28,1-.78,1a.56.56,0,0,1-.57-.32,2.1,2.1,0,0,1,0,.28H3.06V37.68ZM4.4,39.39c0-.44-.22-.73-.56-.73s-.6.3-.6.77.14.77.58.77S4.4,39.9,4.4,39.39Z"/><path d="M6.4,39.8v.53H6.22s0-.17,0-.31a.55.55,0,0,1-.58.35c-.26,0-.59-.1-.59-.65V38.53h.19v1.15c0,.26.08.51.43.51s.55-.22.55-.74v-.92H6.4Z"/><path d="M8.38,37.68v2.13c0,.17,0,.34,0,.52H8.21a2.54,2.54,0,0,1,0-.3.59.59,0,0,1-.61.34c-.47,0-.75-.38-.75-.92s.31-1,.8-1a.57.57,0,0,1,.56.27V37.68ZM7,39.44c0,.49.25.76.56.76.48,0,.6-.33.6-.81s-.11-.73-.57-.73S7,38.94,7,39.44Z"/><path d="M10.35,40.21c0,.57-.25.88-.78.88a.64.64,0,0,1-.71-.54h.19a.51.51,0,0,0,.53.36c.46,0,.59-.3.59-.75V40a.57.57,0,0,1-.6.36c-.42,0-.74-.34-.74-.9s.34-1,.77-1a.55.55,0,0,1,.57.32c0-.1,0-.23,0-.27h.18c0,.06,0,.35,0,.52ZM9,39.42c0,.43.23.73.57.73s.59-.29.59-.76-.15-.73-.58-.73S9,39,9,39.42Z"/><path d="M11,39.45c0,.46.23.75.58.75a.5.5,0,0,0,.51-.34h.19a.69.69,0,0,1-.71.51c-.55,0-.76-.47-.76-.93s.25-1,.78-1a.74.74,0,0,1,.73.82v.15Zm1.13-.16a.56.56,0,0,0-.55-.63c-.37,0-.53.26-.57.63Z"/><path d="M12.51,38.53h.33V38H13v.56h.43v.17H13v1.17c0,.2,0,.31.22.31a.55.55,0,0,0,.18,0v.16a.54.54,0,0,1-.22,0c-.24,0-.37-.12-.37-.41V38.7h-.33Z"/><path d="M15,40.07v1h-.19V38.53h.18a2.64,2.64,0,0,1,0,.32.67.67,0,0,1,.63-.37c.43,0,.72.36.72.9s-.34,1-.78,1A.59.59,0,0,1,15,40.07Zm1.15-.68c0-.42-.2-.73-.55-.73s-.61.27-.61.76.14.78.58.78S16.1,39.88,16.1,39.39Z"/><path d="M16.75,40.33V37.68h.19v2.65Z"/><path d="M18.74,40a1.39,1.39,0,0,0,0,.35h-.18a.9.9,0,0,1,0-.28.58.58,0,0,1-.59.32.53.53,0,0,1-.59-.54c0-.39.3-.58.84-.58h.34v-.18c0-.18-.05-.42-.46-.42s-.41.19-.45.34h-.19a.57.57,0,0,1,.65-.51c.41,0,.64.18.64.58Zm-.18-.57h-.35c-.4,0-.65.11-.65.41a.37.37,0,0,0,.41.38c.51,0,.59-.34.59-.72Z"/><path d="M19.33,39v-.45h.18c0,.06,0,.29,0,.34a.59.59,0,0,1,.59-.39c.33,0,.61.19.61.68v1.17h-.19V39.19c0-.32-.13-.52-.44-.52s-.57.35-.57.74v.92h-.19Z"/><path d="M21.18,40.33v-.47h.19v.47Z"/><path class="cls-1" d="M24,13A10.94,10.94,0,1,1,13,2.08a12.35,12.35,0,0,1,1.62.12L15,.14A13.59,13.59,0,0,0,13,0,13,13,0,1,0,26,13Z"/><path d="M9.28,10.55v.71a10.54,10.54,0,0,0-1.8,4.22h-1a10.41,10.41,0,0,1,1.8-4.15H5.92v-.78Z"/><path d="M13.27,10.55v.71a10.54,10.54,0,0,0-1.8,4.22h-1a10.41,10.41,0,0,1,1.8-4.15H9.91v-.78Z"/><path d="M16.41,11.87A1.28,1.28,0,0,1,15.1,13.3a1.25,1.25,0,0,1-1.3-1.42,1.28,1.28,0,0,1,1.31-1.42A1.26,1.26,0,0,1,16.41,11.87Zm-1.87,0c0,.51.2.82.57.82s.58-.28.58-.82-.23-.8-.59-.8S14.54,11.34,14.54,11.87Zm.52,3.61,3.09-4.93h.71l-3.09,4.93Zm5.06-1.32a1.28,1.28,0,0,1-1.31,1.42,1.25,1.25,0,0,1-1.3-1.42,1.28,1.28,0,0,1,1.31-1.41A1.25,1.25,0,0,1,20.12,14.16Zm-1.87,0c0,.51.2.81.57.81s.58-.27.58-.81-.23-.8-.58-.8S18.25,13.63,18.25,14.16Z"/></g></g></svg>