<svg xmlns="http://www.w3.org/2000/svg" viewBox="0 0 30.58 40.97"><defs><style>.cls-1{fill:#f47b29;}</style></defs><g id="Layer_2" data-name="Layer 2"><g id="Layer_1-2" data-name="Layer 1"><path d="M2.47,30.3a1.17,1.17,0,0,1-1.14,1.31,1.31,1.31,0,0,1,0-2.59A1.15,1.15,0,0,1,2.47,30.3Zm-2.05,0a1,1,0,0,0,.92,1.12c.65,0,.92-.53.92-1.13S2,29.21,1.34,29.21.42,29.74.42,30.31Z"/><path d="M3.06,31.58V30H2.75v-.18h.31v-.25c0-.3.09-.63.49-.63l.18,0v.18l-.19,0c-.21,0-.29.15-.29.46v.24h.39V30H3.25v1.63Z"/><path d="M5,31.31v1H4.86V30.22c0-.15,0-.31,0-.45H5a2.83,2.83,0,0,1,0,.33.65.65,0,0,1,.63-.37c.43,0,.72.36.72.9s-.34,1-.78,1A.59.59,0,0,1,5,31.31Zm1.16-.67c0-.42-.2-.73-.56-.73s-.61.27-.61.76.14.78.59.78S6.2,31.13,6.2,30.64Z"/><path d="M8.08,31.23a2.13,2.13,0,0,0,0,.35H7.93a1.2,1.2,0,0,1,0-.28.6.6,0,0,1-.59.32.54.54,0,0,1-.6-.54c0-.4.31-.58.85-.58H7.9v-.18c0-.18-.06-.42-.46-.42s-.42.19-.46.34H6.8a.56.56,0,0,1,.64-.51c.41,0,.64.17.64.57Zm-.18-.57H7.55c-.4,0-.64.1-.64.41a.37.37,0,0,0,.41.38c.51,0,.58-.34.58-.73Z"/><path d="M8.67,30.26v-.49h.18a3.59,3.59,0,0,1,0,.41.71.71,0,0,1,.63-.45v.2a.65.65,0,0,0-.63.71v.94H8.67Z"/><path d="M9.69,29.77H10v-.56h.18v.56h.43V30h-.43v1.16c0,.2,0,.32.22.32l.18,0v.16a.78.78,0,0,1-.22,0c-.24,0-.36-.12-.36-.4V30H9.69Z"/><path d="M11,28.92h.19v.35H11Zm0,.85h.19v1.81H11Z"/><path d="M13.11,31.05a.69.69,0,0,1-.7.57c-.45,0-.77-.34-.77-.94s.26-.95.79-.95a.65.65,0,0,1,.68.58h-.19a.47.47,0,0,0-.49-.4c-.38,0-.59.32-.59.77s.2.77.57.77a.51.51,0,0,0,.51-.4Z"/><path d="M13.57,28.92h.19v.35h-.19Zm0,.85h.19v1.81h-.19Z"/><path d="M14.53,31.31v1h-.18V30.22c0-.15,0-.31,0-.45h.19v.33a.67.67,0,0,1,.64-.37c.42,0,.72.36.72.9s-.35,1-.78,1A.6.6,0,0,1,14.53,31.31Zm1.16-.67c0-.42-.2-.73-.56-.73s-.61.27-.61.76.14.78.59.78S15.69,31.13,15.69,30.64Z"/><path d="M17.58,31.23a2.5,2.5,0,0,0,0,.35h-.18a2.31,2.31,0,0,1,0-.28.6.6,0,0,1-.59.32.54.54,0,0,1-.6-.54c0-.4.31-.58.85-.58h.34v-.18c0-.18-.05-.42-.46-.42s-.42.19-.45.34h-.19a.56.56,0,0,1,.64-.51c.42,0,.65.17.65.57Zm-.19-.57H17c-.39,0-.64.1-.64.41a.37.37,0,0,0,.41.38c.51,0,.58-.34.58-.73Z"/><path d="M18.17,30.23c0-.16,0-.31,0-.46h.19c0,.06,0,.29,0,.34a.57.57,0,0,1,.59-.38c.32,0,.61.18.61.68v1.17h-.19V30.44c0-.32-.13-.53-.44-.53s-.57.35-.57.75v.92h-.19Z"/><path d="M19.86,29.77h.34v-.56h.19v.56h.42V30h-.42v1.16c0,.2,0,.32.21.32l.19,0v.16a.8.8,0,0,1-.23,0c-.23,0-.36-.12-.36-.4V30h-.34Z"/><path d="M21.25,31.08a.48.48,0,0,0,.51.37c.32,0,.44-.15.44-.35s-.08-.3-.48-.4-.59-.25-.59-.49.19-.48.6-.48a.58.58,0,0,1,.64.51h-.19a.42.42,0,0,0-.46-.34c-.31,0-.39.15-.39.3s.08.24.44.33c.51.12.63.29.63.56s-.26.53-.65.53a.63.63,0,0,1-.69-.54Z"/><path d="M23.79,31.08a.48.48,0,0,0,.51.37c.32,0,.45-.15.45-.35s-.09-.3-.49-.4-.58-.25-.58-.49.18-.48.59-.48a.58.58,0,0,1,.64.51h-.19a.42.42,0,0,0-.45-.34c-.31,0-.4.15-.4.3s.08.24.44.33c.51.12.63.29.63.56s-.26.53-.64.53a.63.63,0,0,1-.7-.54Z"/><path d="M25.44,30.7c0,.46.23.75.58.75a.5.5,0,0,0,.51-.34h.19a.69.69,0,0,1-.71.51c-.55,0-.76-.47-.76-.93s.25-1,.78-1a.74.74,0,0,1,.73.82v.15Zm1.13-.16a.56.56,0,0,0-.55-.63c-.37,0-.53.25-.57.63Z"/><path d="M27.2,30.23v-.46h.18c0,.06,0,.29,0,.34a.58.58,0,0,1,.59-.38c.33,0,.61.18.61.68v1.17H28.4V30.44c0-.32-.13-.53-.44-.53s-.57.35-.57.75v.92H27.2Z"/><path d="M30.57,28.92v2.14c0,.17,0,.34,0,.52H30.4a2.63,2.63,0,0,1,0-.3.61.61,0,0,1-.61.34c-.47,0-.75-.38-.75-.92s.31-1,.8-1a.57.57,0,0,1,.56.27V28.92Zm-1.34,1.77c0,.49.25.76.56.76.48,0,.6-.33.6-.82s-.11-.72-.57-.72S29.23,30.19,29.23,30.69Z"/><path d="M.29,34.56v-.47H.47a3.11,3.11,0,0,1,0,.32A.56.56,0,0,1,1,34.05a.51.51,0,0,1,.52.36.61.61,0,0,1,.59-.36c.28,0,.57.16.57.66V35.9H2.51V34.73c0-.24-.09-.5-.42-.5s-.5.28-.5.63v1H1.4V34.74c0-.26-.08-.51-.4-.51s-.52.31-.52.68v1H.29Z"/><path d="M4.75,35a.85.85,0,0,1-.82.95c-.49,0-.79-.4-.79-.94a.84.84,0,0,1,.81-1A.83.83,0,0,1,4.75,35ZM3.34,35c0,.42.23.77.6.77s.61-.32.61-.77-.22-.77-.61-.77S3.34,34.56,3.34,35Z"/><path d="M5.19,34.55v-.46h.18c0,.06,0,.29,0,.34A.58.58,0,0,1,6,34.05c.33,0,.61.18.61.68V35.9H6.39V34.76c0-.32-.13-.53-.44-.53s-.57.35-.57.75v.92H5.19Z"/><path d="M7.21,35c0,.46.24.75.58.75a.51.51,0,0,0,.52-.34H8.5a.7.7,0,0,1-.71.51c-.55,0-.77-.47-.77-.93s.26-1,.79-1a.75.75,0,0,1,.73.82V35Zm1.14-.16c0-.36-.2-.63-.55-.63s-.54.25-.58.63Z"/><path d="M9,34.09c.36,1,.52,1.45.58,1.65h0c.07-.22.22-.64.56-1.65h.2L9.66,36c-.19.53-.32.65-.65.65H8.85v-.18H9c.26,0,.34-.13.47-.49l-.69-1.89Z"/><path d="M11.66,35.9V34.27h-.31v-.18h.31v-.25c0-.3.09-.63.49-.63l.18,0v.18l-.19,0c-.21,0-.29.15-.29.46v.24h.39v.18h-.39V35.9Z"/><path d="M14,35a.85.85,0,0,1-.82.95.84.84,0,0,1-.79-.94.85.85,0,0,1,.81-1A.83.83,0,0,1,14,35Zm-1.41,0c0,.42.23.77.61.77s.6-.32.6-.77-.21-.77-.61-.77S12.58,34.56,12.58,35Z"/><path d="M14.43,34.58v-.49h.18a3.59,3.59,0,0,1,0,.41.71.71,0,0,1,.63-.45v.2a.65.65,0,0,0-.63.71v.94h-.19Z"/><path d="M16.59,35.9V34.27h-.31v-.18h.31v-.25c0-.3.09-.63.49-.63l.18,0v.18l-.19,0c-.21,0-.29.15-.29.46v.24h.39v.18h-.39V35.9Z"/><path d="M17.47,34.58v-.49h.18a3.59,3.59,0,0,1,0,.41.68.68,0,0,1,.63-.45v.2a.65.65,0,0,0-.63.71v.94h-.19Z"/><path d="M18.62,33.24h.19v.35h-.19Zm0,.85h.19V35.9h-.19Z"/><path d="M19.44,35c0,.46.23.75.58.75a.5.5,0,0,0,.51-.34h.19a.68.68,0,0,1-.71.51c-.55,0-.76-.47-.76-.93s.26-1,.78-1a.85.85,0,0,1,.73,1Zm1.13-.16c0-.36-.19-.63-.54-.63s-.54.25-.58.63Z"/><path d="M21.2,34.55v-.46h.18c0,.06,0,.29,0,.34a.59.59,0,0,1,.6-.38c.32,0,.6.18.6.68V35.9H22.4V34.76c0-.32-.13-.53-.44-.53s-.57.35-.57.75v.92H21.2Z"/><path d="M24.58,33.24V35.9H24.4a2.63,2.63,0,0,1,0-.3.6.6,0,0,1-.6.34c-.47,0-.75-.38-.75-.92s.3-1,.79-1a.57.57,0,0,1,.56.27V33.24ZM23.23,35c0,.49.26.76.57.76.47,0,.6-.33.6-.82s-.11-.72-.57-.72S23.23,34.51,23.23,35Z"/><path d="M25.15,35.4a.48.48,0,0,0,.51.37c.32,0,.45-.15.45-.35s-.09-.3-.49-.4-.58-.25-.58-.49.19-.48.6-.48a.57.57,0,0,1,.63.51h-.19a.42.42,0,0,0-.45-.34c-.31,0-.4.15-.4.3s.08.24.44.33.63.29.63.56-.26.53-.64.53a.63.63,0,0,1-.7-.54Z"/><path d="M1.54,39.87a2.5,2.5,0,0,0,0,.35H1.38a2.31,2.31,0,0,1,0-.28.6.6,0,0,1-.59.32.54.54,0,0,1-.6-.54c0-.4.31-.58.85-.58h.34V39c0-.18-.05-.42-.46-.42s-.42.19-.46.34H.25a.56.56,0,0,1,.64-.51c.41,0,.65.17.65.57Zm-.19-.57H1c-.4,0-.64.1-.64.41a.37.37,0,0,0,.41.38c.51,0,.58-.34.58-.73Z"/><path d="M2.13,38.87c0-.16,0-.31,0-.45h.19s0,.28,0,.33a.59.59,0,0,1,.6-.38c.32,0,.61.18.61.68v1.17H3.33V39.08c0-.32-.13-.53-.45-.53s-.57.35-.57.75v.92H2.13Z"/><path d="M5.5,37.56v2.66H5.32s0-.21,0-.3a.6.6,0,0,1-.6.34c-.47,0-.75-.38-.75-.92s.31-1,.8-1a.55.55,0,0,1,.55.27V37.56ZM4.16,39.33c0,.49.25.76.56.76.47,0,.6-.33.6-.82s-.11-.72-.57-.72S4.16,38.83,4.16,39.33Z"/><path d="M7.07,40.22V38.59H6.76v-.17h.31v-.26c0-.3.09-.63.49-.63l.18,0v.18l-.19,0c-.21,0-.29.15-.29.46v.25h.39v.17H7.26v1.63Z"/><path d="M9.16,39.87a2.5,2.5,0,0,0,0,.35H9a2.31,2.31,0,0,1,0-.28.6.6,0,0,1-.59.32.54.54,0,0,1-.6-.54c0-.4.31-.58.85-.58H9V39c0-.18-.05-.42-.46-.42s-.42.19-.45.34H7.87a.56.56,0,0,1,.64-.51c.42,0,.65.17.65.57ZM9,39.3H8.62c-.39,0-.64.1-.64.41a.37.37,0,0,0,.41.38c.51,0,.58-.34.58-.73Z"/><path d="M9.75,38.88c0-.16,0-.32,0-.46h.19c0,.06,0,.21,0,.31a.57.57,0,0,1,.54-.36.52.52,0,0,1,.53.36.61.61,0,0,1,.58-.36c.28,0,.57.16.57.66v1.19H12V39.05c0-.24-.08-.5-.42-.5s-.5.28-.5.63v1h-.18V39.06c0-.26-.08-.51-.41-.51s-.52.31-.52.68v1H9.75Z"/><path d="M12.74,37.56h.18v.36h-.18Zm0,.86h.18v1.8h-.18Z"/><path d="M13.51,40.22V37.56h.19v2.66Z"/><path d="M14.28,38.42c.36,1,.52,1.44.58,1.64h0c.08-.22.22-.64.56-1.64h.2l-.68,1.9c-.19.53-.32.65-.64.65h-.17v-.18h.16c.26,0,.34-.13.47-.49l-.68-1.88Z"/><path d="M15.67,40.22v-.47h.19v.47Z"/><path d="M9.2,10.44v.71a10.48,10.48,0,0,0-1.8,4.22h-1a10.27,10.27,0,0,1,1.8-4.15H5.84v-.78Z"/><path d="M9.81,11.67a1.5,1.5,0,0,1,1.67-1.32c1.1,0,1.6.64,1.6,1.32a1,1,0,0,1-.63,1v0a1.18,1.18,0,0,1,.82,1.21c0,.73-.45,1.55-1.8,1.55A1.57,1.57,0,0,1,9.7,14h.91a.83.83,0,0,0,.89.69.77.77,0,0,0,.83-.84c0-.52-.29-.8-.9-.8H11v-.73h.36c.54,0,.77-.2.77-.64s-.23-.63-.7-.63a.67.67,0,0,0-.75.58Z"/><path d="M16.49,11.76a1.28,1.28,0,0,1-1.31,1.42,1.25,1.25,0,0,1-1.3-1.42,1.29,1.29,0,0,1,1.31-1.41A1.26,1.26,0,0,1,16.49,11.76Zm-1.87,0c0,.51.2.81.57.81s.58-.27.58-.81-.23-.8-.58-.8S14.62,11.23,14.62,11.76Zm.52,3.61,3.09-4.94h.71l-3.09,4.94ZM20.2,14a1.28,1.28,0,0,1-1.31,1.43,1.26,1.26,0,0,1-1.3-1.42,1.29,1.29,0,0,1,1.31-1.42A1.25,1.25,0,0,1,20.2,14Zm-1.87,0c0,.51.2.82.57.82s.58-.28.58-.82-.23-.8-.58-.8S18.33,13.52,18.33,14Z"/><path class="cls-1" d="M13,23.85A10.93,10.93,0,0,1,11.65,2.07L11.39,0A13,13,0,1,0,26,12.91H24A10.94,10.94,0,0,1,13,23.85Z"/></g></g></svg>